# xmcd
#
# Track frame offsets:
#        150
#        18612
#        33240
#        46982
#        60905
#        71852
#        95147
#        102247
#        112187
#        129937
#        142772
#        158565
#        174480
#        190995
#        214384
#
# Disc length: 3132 seconds
#
# Revision: 0
# Processed by: cddbd v1.5.1PL2 Copyright (c) Steve Scherf et al.
# Submitted via: ExactAudioCopy v0.95b4
#
DISCID=d20c3a0f
DTITLE=DERANGED - III
DYEAR=1999
DGENRE=Death Metal
TTITLE0=Ripped, Raped, Randomized
TTITLE1=Compulsive Urge To Kill
TTITLE2=Consume Excrete Dwell
TTITLE3=Laugh At Human Tragediy
TTITLE4=Through The Realm Of Torture
TTITLE5=Festering...
TTITLE6=III
TTITLE7=Thrill Kill
TTITLE8=Icon Of Murder *
TTITLE9=I Thrive On Suffering
TTITLE10=Death Tripping
TTITLE11=Vermin Of A Sewer World *
TTITLE12=Relentless *
TTITLE13=Stagnant Pool *
TTITLE14=Razor(Rection)
EXTD=
EXTT0=
EXTT1=
EXTT2=
EXTT3=
EXTT4=
EXTT5=
EXTT6=
EXTT7=
EXTT8=
EXTT9=
EXTT10=
EXTT11=
EXTT12=
EXTT13=
EXTT14=
PLAYORDER=
